<svg viewBox="0 0 48 48" fill="none" xmlns="http://www.w3.org/2000/svg">
<path d="M43.1925 2.45605H4.8075C2.9835 2.45605 1.5 3.9403 1.5 5.76355V38.6436C1.5 40.4631 2.98425 41.9436 4.8075 41.9436H5.7375V42.6786C5.7375 44.2581 7.02225 45.5436 8.6025 45.5436C10.1827 45.5436 11.4607 44.2581 11.4607 42.6786V41.9436H36.54V42.6786C36.54 44.2581 37.8217 45.5436 39.3982 45.5436C40.9747 45.5436 42.2632 44.2581 42.2632 42.6786V41.9436H43.1932C45.0172 41.9436 46.5007 40.4631 46.5007 38.6436V5.76355C46.5007 3.93955 45.0157 2.45605 43.1925 2.45605ZM3 5.76355C3 4.7668 3.81075 3.95605 4.8075 3.95605H43.1925C44.1892 3.95605 45 4.7668 45 5.76355V8.0113C44.8492 7.91305 44.6887 7.83055 44.523 7.7578C44.4772 7.73755 44.4292 7.7218 44.382 7.7038C44.244 7.65055 44.1022 7.6063 43.956 7.5718C43.9005 7.5583 43.8465 7.5448 43.7902 7.5343C43.596 7.4983 43.3972 7.4743 43.1925 7.4743H31.011C31.0072 7.4743 31.0042 7.47205 30.9997 7.47205H17.0002C16.9965 7.47205 16.9935 7.4743 16.989 7.4743H4.8075C4.60275 7.4743 4.404 7.49905 4.20975 7.5343C4.1535 7.5448 4.0995 7.5583 4.044 7.5718C3.89775 7.6063 3.756 7.65055 3.618 7.7038C3.57075 7.7218 3.5235 7.73755 3.477 7.7578C3.31125 7.8313 3.15 7.91305 3 8.01205V5.76355ZM17.7502 8.97356H30.2505V10.2163C30.2505 10.6716 29.88 11.0421 29.4247 11.0421H18.576C18.1207 11.0421 17.7502 10.6716 17.7502 10.2163V8.97356ZM9.96 42.6786C9.96 43.4316 9.351 44.0436 8.60175 44.0436C7.8525 44.0436 7.23675 43.4316 7.23675 42.6786V41.9436H9.95925L9.96 42.6786ZM40.7625 42.6786C40.7625 43.4316 40.1505 44.0436 39.3975 44.0436C38.6445 44.0436 38.0392 43.4316 38.0392 42.6786V41.9436H40.7617L40.7625 42.6786ZM45 38.6436C45 39.6358 44.1892 40.4436 43.1925 40.4436H4.8075C3.81075 40.4436 3 39.6358 3 38.6436V10.7736C3 9.78055 3.81075 8.97356 4.8075 8.97356H16.2495V10.2163C16.2495 11.4988 17.2927 12.5421 18.5752 12.5421H29.424C30.7065 12.5421 31.7497 11.4988 31.7497 10.2163V8.97356H43.1917C44.1885 8.97356 44.9992 9.7813 44.9992 10.7736L45 38.6436Z" fill="#5723FF"/>
<path d="M30.4763 24.9585C30.5408 24.975 30.6053 24.984 30.6691 24.984C31.0013 24.984 31.3043 24.762 31.3936 24.426C31.4993 24.0255 31.2608 23.6145 30.8611 23.5088L29.3011 23.0955L29.7143 21.5363C29.8201 21.1358 29.5816 20.7248 29.1818 20.619C28.7791 20.514 28.3703 20.7518 28.2646 21.1515L27.7381 23.139L26.2223 24.0195C25.8271 23.589 25.3171 23.2853 24.7508 23.1405V21.4155L26.2021 19.9643C26.4953 19.671 26.4953 19.1963 26.2021 18.9038C25.9088 18.6105 25.4348 18.6105 25.1416 18.9038L24.0008 20.0445L22.8601 18.9038C22.5668 18.6105 22.0928 18.6105 21.7996 18.9038C21.5063 19.1963 21.5063 19.671 21.7996 19.9643L23.2508 21.4155V23.1405C22.6861 23.2853 22.1761 23.5883 21.7801 24.0195L20.2636 23.139L19.7371 21.1515C19.6306 20.7518 19.2211 20.5133 18.8198 20.619C18.4193 20.7255 18.1808 21.1358 18.2873 21.5363L18.7006 23.0955L17.1406 23.5088C16.7401 23.6153 16.5016 24.0255 16.6081 24.426C16.6973 24.762 17.0003 24.984 17.3326 24.984C17.3956 24.984 17.4608 24.9758 17.5253 24.9585L19.5068 24.4328L21.0728 25.3425C21.0166 25.5773 20.9873 25.8203 20.9873 26.0633C20.9873 26.3783 21.0391 26.6865 21.1321 26.979L19.5136 27.918L17.5246 27.3908C17.1226 27.2843 16.7131 27.5235 16.6073 27.9233C16.5016 28.3238 16.7401 28.7348 17.1398 28.8405L18.6998 29.2538L18.2866 30.813C18.1808 31.2135 18.4193 31.6245 18.8191 31.7303C18.8836 31.7468 18.9481 31.7558 19.0118 31.7558C19.3441 31.7558 19.6478 31.5338 19.7363 31.1978L20.2606 29.2185L21.9301 28.2503C22.3021 28.6035 22.7551 28.8555 23.2508 28.983V30.9345L21.7996 32.3858C21.5063 32.679 21.5063 33.153 21.7996 33.4463C22.0928 33.7395 22.5668 33.7395 22.8601 33.4463L24.0008 32.3055L25.1416 33.4463C25.2878 33.5925 25.4798 33.666 25.6718 33.666C25.8638 33.666 26.0558 33.5925 26.2021 33.4463C26.4953 33.153 26.4953 32.679 26.2021 32.3858L24.7508 30.9345V28.983C25.2466 28.8563 25.6996 28.6035 26.0716 28.251L27.7403 29.2193L28.2646 31.1985C28.3538 31.5345 28.6568 31.7565 28.9891 31.7565C29.0521 31.7565 29.1173 31.7483 29.1818 31.731C29.5823 31.6245 29.8208 31.2143 29.7143 30.8138L29.3011 29.2545L30.8611 28.8413C31.2616 28.7348 31.5001 28.3245 31.3936 27.924C31.2871 27.5235 30.8776 27.2843 30.4763 27.3915L28.4873 27.9188L26.8688 26.9798C26.9626 26.6865 27.0143 26.379 27.0143 26.064C27.0143 25.821 26.9851 25.5788 26.9288 25.3433L28.4956 24.4335L30.4771 24.9593L30.4763 24.9585ZM24.0001 27.5768C23.4841 27.5768 23.0078 27.3158 22.7236 26.877C22.5683 26.6393 22.4866 26.3573 22.4866 26.0633C22.4866 25.8098 22.5436 25.5698 22.6523 25.3575C22.9171 24.855 23.4338 24.5423 24.0001 24.5423C24.5663 24.5423 25.0831 24.855 25.3441 25.35C25.4566 25.5698 25.5143 25.8098 25.5143 26.0633C25.5143 26.3573 25.4326 26.6393 25.2751 26.8793C24.9931 27.3158 24.5161 27.5768 24.0001 27.5768Z" fill="#5723FF"/>
</svg>
