<svg viewBox="0 0 48 48" fill="none" xmlns="http://www.w3.org/2000/svg">
<path d="M9.06366 46.5H38.9444C40.0987 46.5 41.0377 45.5512 41.0377 44.385V3.615C41.0377 2.44875 40.0987 1.5 38.9444 1.5H9.06366C7.90491 1.5 6.96216 2.44875 6.96216 3.615V44.385C6.96216 45.5512 7.90491 46.5 9.06366 46.5ZM39.5377 3.615V44.385C39.5377 44.724 39.2722 45 38.9444 45H28.4444V3H38.9444C39.2722 3 39.5377 3.276 39.5377 3.615ZM8.46216 3.615C8.46216 3.276 8.73141 3 9.06366 3H26.9444V45H9.06366C8.73216 45 8.46216 44.724 8.46216 44.385V3.615Z" fill="#5723FF"/>
<path d="M30.798 29.7083C31.2127 29.7083 31.548 29.3723 31.548 28.9583V18.708C31.548 18.294 31.2127 17.958 30.798 17.958C30.3832 17.958 30.048 18.294 30.048 18.708V28.9583C30.048 29.3723 30.3832 29.7083 30.798 29.7083Z" fill="#5723FF"/>
<path d="M24.5902 29.7083C25.005 29.7083 25.3402 29.3723 25.3402 28.9583V18.708C25.3402 18.294 25.005 17.958 24.5902 17.958C24.1755 17.958 23.8402 18.294 23.8402 18.708V28.9583C23.8402 29.3723 24.1755 29.7083 24.5902 29.7083Z" fill="#5723FF"/>
<path d="M12.6105 31.7497H20.028C20.4427 31.7497 20.778 31.4137 20.778 30.9997V17.0002C20.778 16.5862 20.4427 16.2502 20.028 16.2502H12.6105C12.1957 16.2502 11.8605 16.5862 11.8605 17.0002V31.0005C11.8605 31.4145 12.1957 31.7497 12.6105 31.7497ZM13.3605 30.2497V28.1662H19.278V30.2497H13.3605ZM19.278 17.7495V26.6662H13.3605V17.7495H19.278Z" fill="#5723FF"/>
</svg>
