<svg viewBox="0 0 48 48" fill="none" xmlns="http://www.w3.org/2000/svg">
<g clip-path="url(#clip0_111_10619)">
<path d="M13.3877 25.0659H0.9375V31.529H13.3877V25.0659Z" stroke="#5723FF" stroke-width="1.5" stroke-miterlimit="10" stroke-linecap="round" stroke-linejoin="round"/>
<path d="M47.0625 25.0659H34.6123V31.529H47.0625V25.0659Z" stroke="#5723FF" stroke-width="1.5" stroke-miterlimit="10" stroke-linecap="round" stroke-linejoin="round"/>
<path d="M13.3877 25.0659H0.9375V47.0626H13.3877V25.0659Z" stroke="#5723FF" stroke-width="1.5" stroke-miterlimit="10" stroke-linecap="round" stroke-linejoin="round"/>
<path d="M47.0625 25.0659H34.6123V47.0626H47.0625V25.0659Z" stroke="#5723FF" stroke-width="1.5" stroke-miterlimit="10" stroke-linecap="round" stroke-linejoin="round"/>
<path d="M34.6123 25.0659H13.3877V47.0626H34.6123V25.0659Z" stroke="#5723FF" stroke-width="1.5" stroke-miterlimit="10" stroke-linecap="round" stroke-linejoin="round"/>
<path d="M30.6748 43.125V34.4365H17.3252V43.125H30.6748Z" stroke="#5723FF" stroke-width="1.5" stroke-miterlimit="10" stroke-linecap="round" stroke-linejoin="round"/>
<path d="M18.2395 29.0054H19.1491" stroke="#5723FF" stroke-width="1.5" stroke-miterlimit="10" stroke-linecap="round" stroke-linejoin="round"/>
<path d="M23.5234 29.0054H24.433" stroke="#5723FF" stroke-width="1.5" stroke-miterlimit="10" stroke-linecap="round" stroke-linejoin="round"/>
<path d="M28.8074 29.0054H29.717" stroke="#5723FF" stroke-width="1.5" stroke-miterlimit="10" stroke-linecap="round" stroke-linejoin="round"/>
<path d="M27.9932 0.9375H20.0066V6.18H27.9932V0.9375Z" stroke="#5723FF" stroke-width="1.5" stroke-miterlimit="10" stroke-linecap="round" stroke-linejoin="round"/>
<path d="M34.5558 12.3599H13.4441L20.0066 6.17993H27.9933L34.5558 12.3599Z" stroke="#5723FF" stroke-width="1.5" stroke-miterlimit="10" stroke-linecap="round" stroke-linejoin="round"/>
<path d="M34.5558 12.3599H13.4441V16.8561H34.5558V12.3599Z" stroke="#5723FF" stroke-width="1.5" stroke-miterlimit="10" stroke-linecap="round" stroke-linejoin="round"/>
<path d="M11.6931 16.8564H36.3076" stroke="#5723FF" stroke-width="1.5" stroke-miterlimit="10" stroke-linecap="round" stroke-linejoin="round"/>
<path d="M39.1398 36.9094V38.4414" stroke="#5723FF" stroke-width="1.5" stroke-miterlimit="10" stroke-linecap="round" stroke-linejoin="round"/>
<path d="M8.8606 36.9094V38.4414" stroke="#5723FF" stroke-width="1.5" stroke-miterlimit="10" stroke-linecap="round" stroke-linejoin="round"/>
</g>
<defs>
<clipPath id="clip0_111_10619">
<rect width="48" height="48" fill="white"/>
</clipPath>
</defs>
</svg>
