<svg viewBox="0 0 48 48" fill="none" xmlns="http://www.w3.org/2000/svg">
<g clip-path="url(#clip0_111_10304)">
<path d="M40.0315 0.000244141H8.03162C5.82336 0.00280762 4.03406 1.79211 4.03149 4.00037V42.4001C4.03149 43.7258 5.10596 44.8003 6.43164 44.8003V47.2001C6.43164 47.6421 6.78979 48.0002 7.23144 48.0002H40.8317C41.2733 48.0002 41.6315 47.6421 41.6315 47.2001V44.8003C42.9568 44.8003 44.0316 43.7258 44.0316 42.4001V4.00037C44.0287 1.79211 42.2397 0.00280762 40.0315 0.000244141ZM8.03162 1.60022H40.0315C41.3568 1.60022 42.4316 2.67468 42.4316 4.00037V9.60046H5.63147V4.00037C5.63147 2.67468 6.70593 1.60022 8.03162 1.60022ZM40.0315 46.4003H8.03162V44.8003H40.0315V46.4003ZM41.6315 43.2003H6.43164C5.98962 43.2003 5.63147 42.8422 5.63147 42.4001V11.2001H42.4316V42.4001C42.4316 42.8422 42.0735 43.2003 41.6315 43.2003Z" fill="#5723FF"/>
<path d="M8.03162 8.00012H17.6315C18.0735 8.00012 18.4316 7.64197 18.4316 7.20032V4.00037C18.4316 3.55835 18.0735 3.2002 17.6315 3.2002H8.03162C7.5896 3.2002 7.23145 3.55835 7.23145 4.00037V7.20032C7.23145 7.64197 7.5896 8.00012 8.03162 8.00012ZM8.83142 4.80017H16.8317V6.40015H8.83142V4.80017Z" fill="#5723FF"/>
<path d="M22.4314 8.00012C23.7571 8.00012 24.8315 6.92566 24.8315 5.60034C24.8315 4.27466 23.7571 3.2002 22.4314 3.2002C21.1061 3.2002 20.0316 4.27466 20.0316 5.60034C20.0316 6.92566 21.1061 8.00012 22.4314 8.00012ZM22.4314 4.80017C22.8734 4.80017 23.2316 5.15832 23.2316 5.60034C23.2316 6.04199 22.8734 6.40015 22.4314 6.40015C21.9897 6.40015 21.6316 6.04199 21.6316 5.60034C21.6316 5.15832 21.9897 4.80017 22.4314 4.80017Z" fill="#5723FF"/>
<path d="M28.8312 8.00012C30.1569 8.00012 31.2313 6.92566 31.2313 5.60034C31.2313 4.27466 30.1569 3.2002 28.8312 3.2002C27.5059 3.2002 26.4314 4.27466 26.4314 5.60034C26.4314 6.92566 27.5059 8.00012 28.8312 8.00012ZM28.8312 4.80017C29.2732 4.80017 29.6313 5.15832 29.6313 5.60034C29.6313 6.04199 29.2732 6.40015 28.8312 6.40015C28.3895 6.40015 28.0314 6.04199 28.0314 5.60034C28.0314 5.15832 28.3895 4.80017 28.8312 4.80017Z" fill="#5723FF"/>
<path d="M33.6316 6.40015H35.2316C35.6732 6.40015 36.0314 6.04199 36.0314 5.60034C36.0314 5.15833 35.6732 4.80017 35.2316 4.80017H33.6316C33.1896 4.80017 32.8314 5.15833 32.8314 5.60034C32.8314 6.04199 33.1896 6.40015 33.6316 6.40015Z" fill="#5723FF"/>
<path d="M38.4315 6.40015H40.0315C40.4735 6.40015 40.8317 6.04199 40.8317 5.60034C40.8317 5.15833 40.4735 4.80017 40.0315 4.80017H38.4315C37.9895 4.80017 37.6313 5.15833 37.6313 5.60034C37.6313 6.04199 37.9895 6.40015 38.4315 6.40015Z" fill="#5723FF"/>
<path d="M24.0314 14.4004C16.9624 14.4004 11.2316 20.1309 11.2316 27.2002C11.2316 34.2695 16.9624 40.0004 24.0314 40.0004C31.1007 40.0004 36.8315 34.2695 36.8315 27.2002C36.8231 20.1345 31.0974 14.4088 24.0314 14.4004ZM24.0314 38.4004C17.8461 38.4004 12.8315 33.3859 12.8315 27.2002C12.8315 21.0145 17.8461 16.0004 24.0314 16.0004C30.217 16.0004 35.2316 21.0145 35.2316 27.2002C35.225 33.3829 30.2145 38.3938 24.0314 38.4004Z" fill="#5723FF"/>
<path d="M24.0314 16.8001C18.2936 16.7946 13.6372 21.4415 13.6314 27.1793C13.6303 28.539 13.8958 29.8859 14.4132 31.1435C14.418 31.1596 14.4132 31.1761 14.4194 31.1922C14.426 31.2083 14.441 31.2233 14.4491 31.242C16.6771 36.5312 22.7712 39.0127 28.0604 36.7846C31.0201 35.5377 33.2368 32.9925 34.0659 29.89C34.0703 29.8768 34.0736 29.8632 34.0762 29.8497C35.5619 24.3243 32.2869 18.6407 26.7611 17.1554C25.8712 16.9162 24.9531 16.7965 24.0314 16.8001ZM24.0314 18.4001C28.88 18.3888 32.8201 22.3101 32.8314 27.1584C32.8329 27.8132 32.7615 28.4658 32.6179 29.1041C32.2008 29.2421 31.7914 29.4025 31.3915 29.5842C30.3536 30.1229 29.2008 30.4027 28.0315 30.4001C27.0358 30.4268 26.0521 30.1774 25.189 29.6801C24.1028 29.0755 22.8745 28.7719 21.6316 28.8001C19.5995 28.8829 17.5901 29.2601 15.6668 29.92C14.1587 25.3057 16.6768 20.3429 21.291 18.8352C22.1758 18.5459 23.1008 18.399 24.0314 18.4001ZM24.0314 36.0002C20.8065 35.998 17.8406 34.2329 16.3003 31.3995C18.0208 30.8139 19.8159 30.4774 21.6316 30.4001C22.6273 30.3737 23.611 30.6228 24.4738 31.1201C25.5603 31.7247 26.7886 32.0286 28.0315 32.0001C29.3751 32.0074 30.7019 31.7009 31.906 31.1051C30.4232 34.0992 27.3727 35.9958 24.0314 36.0002Z" fill="#5723FF"/>
</g>
<defs>
<clipPath id="clip0_111_10304">
<rect width="48" height="48" fill="white"/>
</clipPath>
</defs>
</svg>
