<svg viewBox="0 0 48 48" fill="none" xmlns="http://www.w3.org/2000/svg">
<g clip-path="url(#clip0_111_10444)">
<path d="M40.0315 0.000244141H8.03162C5.82336 0.00280762 4.03406 1.79211 4.03149 4.00037V42.4001C4.03149 43.7258 5.10596 44.8003 6.43164 44.8003V47.2001C6.43164 47.6421 6.78979 48.0002 7.23144 48.0002H40.8317C41.2733 48.0002 41.6315 47.6421 41.6315 47.2001V44.8003C42.9568 44.8003 44.0316 43.7258 44.0316 42.4001V4.00037C44.0287 1.79211 42.2397 0.00280762 40.0315 0.000244141ZM8.03162 1.60022H40.0315C41.3568 1.60022 42.4316 2.67468 42.4316 4.00037V9.60046H5.63147V4.00037C5.63147 2.67468 6.70593 1.60022 8.03162 1.60022ZM40.0315 46.4003H8.03162V44.8003H40.0315V46.4003ZM41.6315 43.2003H6.43164C5.98962 43.2003 5.63147 42.8422 5.63147 42.4001V11.2001H42.4316V42.4001C42.4316 42.8422 42.0735 43.2003 41.6315 43.2003Z" fill="#5723FF"/>
<path d="M8.03162 8.00012H17.6315C18.0735 8.00012 18.4316 7.64197 18.4316 7.20032V4.00037C18.4316 3.55835 18.0735 3.2002 17.6315 3.2002H8.03162C7.5896 3.2002 7.23145 3.55835 7.23145 4.00037V7.20032C7.23145 7.64197 7.5896 8.00012 8.03162 8.00012ZM8.83142 4.80017H16.8317V6.40015H8.83142V4.80017Z" fill="#5723FF"/>
<path d="M22.4314 8.00012C23.7571 8.00012 24.8315 6.92566 24.8315 5.60034C24.8315 4.27466 23.7571 3.2002 22.4314 3.2002C21.1061 3.2002 20.0316 4.27466 20.0316 5.60034C20.0316 6.92566 21.1061 8.00012 22.4314 8.00012ZM22.4314 4.80017C22.8734 4.80017 23.2316 5.15832 23.2316 5.60034C23.2316 6.04199 22.8734 6.40015 22.4314 6.40015C21.9897 6.40015 21.6316 6.04199 21.6316 5.60034C21.6316 5.15832 21.9897 4.80017 22.4314 4.80017Z" fill="#5723FF"/>
<path d="M28.8312 8.00012C30.1569 8.00012 31.2313 6.92566 31.2313 5.60034C31.2313 4.27466 30.1569 3.2002 28.8312 3.2002C27.5059 3.2002 26.4314 4.27466 26.4314 5.60034C26.4314 6.92566 27.5059 8.00012 28.8312 8.00012ZM28.8312 4.80017C29.2732 4.80017 29.6313 5.15832 29.6313 5.60034C29.6313 6.04199 29.2732 6.40015 28.8312 6.40015C28.3895 6.40015 28.0314 6.04199 28.0314 5.60034C28.0314 5.15832 28.3895 4.80017 28.8312 4.80017Z" fill="#5723FF"/>
<path d="M33.6316 6.40002H35.2316C35.6732 6.40002 36.0314 6.04187 36.0314 5.60022C36.0314 5.1582 35.6732 4.80005 35.2316 4.80005H33.6316C33.1896 4.80005 32.8314 5.1582 32.8314 5.60022C32.8314 6.04187 33.1896 6.40002 33.6316 6.40002Z" fill="#5723FF"/>
<path d="M38.4315 6.40002H40.0315C40.4735 6.40002 40.8317 6.04187 40.8317 5.60022C40.8317 5.1582 40.4735 4.80005 40.0315 4.80005H38.4315C37.9895 4.80005 37.6313 5.1582 37.6313 5.60022C37.6313 6.04187 37.9895 6.40002 38.4315 6.40002Z" fill="#5723FF"/>
<path d="M24.0497 14.4004C16.9807 14.4004 11.2499 20.1309 11.2499 27.2002C11.2499 34.2695 16.9807 40.0004 24.0497 40.0004C31.119 40.0004 36.8498 34.2695 36.8498 27.2002C36.8414 20.1345 31.1157 14.4088 24.0497 14.4004ZM24.0497 38.4004C17.8644 38.4004 12.8499 33.3859 12.8499 27.2002C12.8499 21.0145 17.8644 16.0004 24.0497 16.0004C30.2353 16.0004 35.2499 21.0145 35.2499 27.2002C35.2433 33.3829 30.2328 38.3938 24.0497 38.4004Z" fill="#5723FF"/>
<path d="M26.41 27.518C26.41 28.5692 25.5578 29.4214 24.5066 29.4214C23.4554 29.4214 22.6033 28.5692 22.6033 27.518C22.6033 26.4669 23.4554 25.6147 24.5066 25.6147C25.5578 25.6147 26.41 26.4669 26.41 27.518Z" stroke="#5723FF" stroke-width="1.17492" stroke-miterlimit="10" stroke-linecap="round" stroke-linejoin="round"/>
<path d="M25.0592 25.6963C25.1987 25.2251 25.4453 24.7023 25.9551 24.1925C27.1814 22.9663 28.3029 23.139 28.3029 22.2798C28.3029 20.4261 26.3988 19.1249 24.3995 19.1249C22.2472 19.1249 20.4961 20.5401 20.4961 22.2798C20.4961 23.1941 20.9581 24.4327 21.673 25.4351C22.0656 25.9857 22.4561 26.3682 22.8209 26.6331" stroke="#5723FF" stroke-width="1.17492" stroke-miterlimit="10" stroke-linecap="round" stroke-linejoin="round"/>
<path d="M25.675 29.0195C25.9797 29.4053 26.265 29.9083 26.3877 30.619C26.6824 32.328 25.8947 33.1448 26.5967 33.6402C28.1113 34.709 30.2723 33.9034 31.4251 32.27C32.666 30.5114 32.5193 28.2647 31.0978 27.2616C30.3508 26.7345 29.0725 26.3978 27.8414 26.4039C27.1649 26.4073 26.6274 26.5058 26.2005 26.6512" stroke="#5723FF" stroke-width="1.17492" stroke-miterlimit="10" stroke-linecap="round" stroke-linejoin="round"/>
<path d="M22.6206 27.7769C22.1342 27.847 21.5559 27.8415 20.8796 27.5914C19.2532 26.9895 18.9414 25.8983 18.1608 26.2573C16.4767 27.0317 16.09 29.3054 16.9252 31.1218C17.8244 33.0773 19.8418 34.077 21.4224 33.3502C22.2531 32.9682 23.1854 32.031 23.7974 30.9627C24.1336 30.3759 24.318 29.8614 24.4063 29.4193" stroke="#5723FF" stroke-width="1.17492" stroke-miterlimit="10" stroke-linecap="round" stroke-linejoin="round"/>
</g>
<defs>
<clipPath id="clip0_111_10444">
<rect width="48" height="48" fill="white"/>
</clipPath>
</defs>
</svg>
