<svg  viewBox="0 0 64 64" fill="none" xmlns="http://www.w3.org/2000/svg">
<g clip-path="url(#clip0_240_10516)">
<path d="M57.6 33.632V9.6C57.5983 8.18603 57.0359 6.83046 56.036 5.83064C55.0362 4.83081 53.6806 4.26836 52.2667 4.26667H51.2V3.2C51.2 2.35131 50.8629 1.53737 50.2627 0.937258C49.6626 0.337142 48.8487 0 48 0C47.1513 0 46.3374 0.337142 45.7373 0.937258C45.1371 1.53737 44.8 2.35131 44.8 3.2V4.26667H38.4V3.2C38.4 2.35131 38.0629 1.53737 37.4627 0.937258C36.8626 0.337142 36.0487 0 35.2 0C34.3513 0 33.5374 0.337142 32.9373 0.937258C32.3371 1.53737 32 2.35131 32 3.2V4.26667H25.6V3.2C25.6 2.35131 25.2629 1.53737 24.6627 0.937258C24.0626 0.337142 23.2487 0 22.4 0C21.5513 0 20.7374 0.337142 20.1373 0.937258C19.5371 1.53737 19.2 2.35131 19.2 3.2V4.26667H12.8V3.2C12.8 2.35131 12.4629 1.53737 11.8627 0.937258C11.2626 0.337142 10.4487 0 9.6 0C8.75131 0 7.93738 0.337142 7.33726 0.937258C6.73714 1.53737 6.4 2.35131 6.4 3.2V4.26667H5.33333C3.91937 4.26836 2.5638 4.83081 1.56397 5.83064C0.564141 6.83046 0.00169372 8.18603 0 9.6L0 52.2667C0.00169372 53.6806 0.564141 55.0362 1.56397 56.036C2.5638 57.0359 3.91937 57.5983 5.33333 57.6H33.632C35.1304 59.472 37.0067 61.0069 39.1385 62.1045C41.2702 63.2021 43.6095 63.8379 46.0036 63.9701C48.3978 64.1024 50.7929 63.7283 53.0326 62.8722C55.2723 62.0161 57.3063 60.6972 59.0018 59.0018C60.6972 57.3063 62.0161 55.2723 62.8722 53.0326C63.7283 50.7929 64.1024 48.3978 63.9701 46.0036C63.8379 43.6095 63.2021 41.2702 62.1045 39.1385C61.0069 37.0067 59.472 35.1304 57.6 33.632ZM46.9333 3.2C46.9333 2.9171 47.0457 2.64579 47.2458 2.44575C47.4458 2.24571 47.7171 2.13333 48 2.13333C48.2829 2.13333 48.5542 2.24571 48.7543 2.44575C48.9543 2.64579 49.0667 2.9171 49.0667 3.2V7.46667C49.0667 7.74957 48.9543 8.02088 48.7543 8.22091C48.5542 8.42095 48.2829 8.53333 48 8.53333C47.7171 8.53333 47.4458 8.42095 47.2458 8.22091C47.0457 8.02088 46.9333 7.74957 46.9333 7.46667V3.2ZM34.1333 3.2C34.1333 2.9171 34.2457 2.64579 34.4458 2.44575C34.6458 2.24571 34.9171 2.13333 35.2 2.13333C35.4829 2.13333 35.7542 2.24571 35.9543 2.44575C36.1543 2.64579 36.2667 2.9171 36.2667 3.2V7.46667C36.2667 7.74957 36.1543 8.02088 35.9543 8.22091C35.7542 8.42095 35.4829 8.53333 35.2 8.53333C34.9171 8.53333 34.6458 8.42095 34.4458 8.22091C34.2457 8.02088 34.1333 7.74957 34.1333 7.46667V3.2ZM21.3333 3.2C21.3333 2.9171 21.4457 2.64579 21.6458 2.44575C21.8458 2.24571 22.1171 2.13333 22.4 2.13333C22.6829 2.13333 22.9542 2.24571 23.1543 2.44575C23.3543 2.64579 23.4667 2.9171 23.4667 3.2V7.46667C23.4667 7.74957 23.3543 8.02088 23.1543 8.22091C22.9542 8.42095 22.6829 8.53333 22.4 8.53333C22.1171 8.53333 21.8458 8.42095 21.6458 8.22091C21.4457 8.02088 21.3333 7.74957 21.3333 7.46667V3.2ZM8.53333 3.2C8.53333 2.9171 8.64572 2.64579 8.84575 2.44575C9.04579 2.24571 9.3171 2.13333 9.6 2.13333C9.8829 2.13333 10.1542 2.24571 10.3542 2.44575C10.5543 2.64579 10.6667 2.9171 10.6667 3.2V7.46667C10.6667 7.74957 10.5543 8.02088 10.3542 8.22091C10.1542 8.42095 9.8829 8.53333 9.6 8.53333C9.3171 8.53333 9.04579 8.42095 8.84575 8.22091C8.64572 8.02088 8.53333 7.74957 8.53333 7.46667V3.2ZM5.33333 6.4H6.4V7.46667C6.4 8.31536 6.73714 9.12929 7.33726 9.72941C7.93738 10.3295 8.75131 10.6667 9.6 10.6667C10.4487 10.6667 11.2626 10.3295 11.8627 9.72941C12.4629 9.12929 12.8 8.31536 12.8 7.46667V6.4H19.2V7.46667C19.2 8.31536 19.5371 9.12929 20.1373 9.72941C20.7374 10.3295 21.5513 10.6667 22.4 10.6667C23.2487 10.6667 24.0626 10.3295 24.6627 9.72941C25.2629 9.12929 25.6 8.31536 25.6 7.46667V6.4H32V7.46667C32 8.31536 32.3371 9.12929 32.9373 9.72941C33.5374 10.3295 34.3513 10.6667 35.2 10.6667C36.0487 10.6667 36.8626 10.3295 37.4627 9.72941C38.0629 9.12929 38.4 8.31536 38.4 7.46667V6.4H44.8V7.46667C44.8 8.31536 45.1371 9.12929 45.7373 9.72941C46.3374 10.3295 47.1513 10.6667 48 10.6667C48.8487 10.6667 49.6626 10.3295 50.2627 9.72941C50.8629 9.12929 51.2 8.31536 51.2 7.46667V6.4H52.2667C53.1154 6.4 53.9293 6.73714 54.5294 7.33726C55.1295 7.93738 55.4667 8.75131 55.4667 9.6V12.8H2.13333V9.6C2.13333 8.75131 2.47048 7.93738 3.07059 7.33726C3.67071 6.73714 4.48464 6.4 5.33333 6.4ZM5.33333 55.4667C4.48464 55.4667 3.67071 55.1295 3.07059 54.5294C2.47048 53.9293 2.13333 53.1154 2.13333 52.2667V14.9333H55.4667V32.176C53.1986 30.8535 50.6545 30.0755 48.0347 29.9032C45.4149 29.7309 42.7908 30.169 40.3691 31.1829C40.2076 30.7935 39.9344 30.4607 39.584 30.2264C39.2335 29.9922 38.8215 29.867 38.4 29.8667H32C31.4342 29.8667 30.8916 30.0914 30.4915 30.4915C30.0914 30.8916 29.8667 31.4342 29.8667 32V38.4C29.867 38.8215 29.9922 39.2335 30.2264 39.584C30.4607 39.9344 30.7935 40.2076 31.1829 40.3691C30.169 42.7908 29.7309 45.4149 29.9032 48.0347C30.0755 50.6545 30.8535 53.1986 32.176 55.4667H5.33333ZM32.176 38.4H32V32H38.4V32.176C35.8203 33.6752 33.6752 35.8203 32.176 38.4ZM46.9333 61.8667C43.9798 61.8667 41.0926 60.9909 38.6368 59.35C36.181 57.7091 34.267 55.3768 33.1367 52.6481C32.0065 49.9194 31.7107 46.9168 32.2869 44.02C32.8632 41.1232 34.2854 38.4623 36.3739 36.3739C38.4623 34.2854 41.1232 32.8632 44.02 32.2869C46.9168 31.7107 49.9194 32.0065 52.6481 33.1367C55.3768 34.267 57.7091 36.181 59.35 38.6368C60.9909 41.0926 61.8667 43.9798 61.8667 46.9333C61.8624 50.8926 60.2878 54.6885 57.4881 57.4881C54.6885 60.2878 50.8926 61.8624 46.9333 61.8667Z" fill="#5723FF"/>
<path d="M56.0576 43.7597C55.9207 43.7907 55.7913 43.8485 55.6768 43.9298C55.5623 44.011 55.4649 44.114 55.3903 44.2329C55.3157 44.3518 55.2652 44.4843 55.2419 44.6227C55.2186 44.7612 55.2229 44.9029 55.2544 45.0397C55.6918 46.9225 55.4803 48.8979 54.654 50.6454C53.8277 52.3929 52.4353 53.81 50.7025 54.6667C48.9697 55.5235 46.9983 55.7696 45.1081 55.3653C43.2179 54.9609 41.5197 53.9297 40.2891 52.439C39.0585 50.9484 38.3677 49.0856 38.3287 47.153C38.2897 45.2204 38.9049 43.3313 40.0743 41.7922C41.2438 40.2531 42.899 39.1543 44.7713 38.674C46.6437 38.1937 48.6235 38.3602 50.3894 39.1463C50.1741 39.2121 49.9855 39.345 49.8512 39.5256C49.7169 39.7062 49.6438 39.925 49.6427 40.1501C49.6427 40.433 49.7551 40.7043 49.9551 40.9043C50.1552 41.1043 50.4265 41.2167 50.7094 41.2167H53.7259C54.0088 41.2167 54.2801 41.1043 54.4801 40.9043C54.6802 40.7043 54.7926 40.433 54.7926 40.1501V37.1282C54.7926 36.8453 54.6802 36.574 54.4801 36.3739C54.2801 36.1739 54.0088 36.0615 53.7259 36.0615C53.443 36.0615 53.1717 36.1739 52.9716 36.3739C52.7716 36.574 52.6592 36.8453 52.6592 37.1282V37.9431C50.5753 36.6212 48.0971 36.0635 45.6477 36.3652C43.1984 36.6669 40.9296 37.8094 39.2288 39.5975C37.5279 41.3857 36.5004 43.7088 36.3216 46.1702C36.1428 48.6316 36.8238 51.0787 38.2483 53.094C39.6729 55.1092 41.7527 56.5675 44.1327 57.2201C46.5128 57.8726 49.0455 57.6789 51.2987 56.672C53.5518 55.6652 55.3857 53.9075 56.4872 51.6991C57.5888 49.4907 57.8897 46.9684 57.3387 44.5629C57.3076 44.4258 57.2498 44.2963 57.1685 44.1817C57.0872 44.0671 56.9841 43.9697 56.8651 43.8951C56.746 43.8204 56.6134 43.77 56.4749 43.7468C56.3363 43.7236 56.1945 43.7279 56.0576 43.7597Z" fill="#5723FF"/>
<path d="M12.8 17.0664H6.4C5.8342 17.0664 5.29158 17.2912 4.8915 17.6912C4.49142 18.0913 4.26666 18.6339 4.26666 19.1997V25.5997C4.26666 26.1655 4.49142 26.7082 4.8915 27.1082C5.29158 27.5083 5.8342 27.7331 6.4 27.7331H12.8C13.3658 27.7331 13.9084 27.5083 14.3085 27.1082C14.7086 26.7082 14.9333 26.1655 14.9333 25.5997V19.1997C14.9333 18.6339 14.7086 18.0913 14.3085 17.6912C13.9084 17.2912 13.3658 17.0664 12.8 17.0664ZM6.4 25.5997V19.1997H12.8V25.5997H6.4Z" fill="#5723FF"/>
<path d="M12.8 29.8662H6.4C5.8342 29.8662 5.29158 30.091 4.8915 30.4911C4.49142 30.8911 4.26666 31.4337 4.26666 31.9995V38.3995C4.26666 38.9653 4.49142 39.508 4.8915 39.908C5.29158 40.3081 5.8342 40.5329 6.4 40.5329H12.8C13.3658 40.5329 13.9084 40.3081 14.3085 39.908C14.7086 39.508 14.9333 38.9653 14.9333 38.3995V31.9995C14.9333 31.4337 14.7086 30.8911 14.3085 30.4911C13.9084 30.091 13.3658 29.8662 12.8 29.8662ZM6.4 38.3995V31.9995H12.8V38.3995H6.4Z" fill="#5723FF"/>
<path d="M12.8 42.667H6.4C5.8342 42.667 5.29158 42.8918 4.8915 43.2918C4.49142 43.6919 4.26666 44.2345 4.26666 44.8003V51.2003C4.26666 51.7661 4.49142 52.3087 4.8915 52.7088C5.29158 53.1089 5.8342 53.3337 6.4 53.3337H12.8C13.3658 53.3337 13.9084 53.1089 14.3085 52.7088C14.7086 52.3087 14.9333 51.7661 14.9333 51.2003V44.8003C14.9333 44.2345 14.7086 43.6919 14.3085 43.2918C13.9084 42.8918 13.3658 42.667 12.8 42.667ZM6.4 51.2003V44.8003H12.8V51.2003H6.4Z" fill="#5723FF"/>
<path d="M25.6 17.0664H19.2C18.6342 17.0664 18.0916 17.2912 17.6915 17.6912C17.2914 18.0913 17.0667 18.6339 17.0667 19.1997V25.5997C17.0667 26.1655 17.2914 26.7082 17.6915 27.1082C18.0916 27.5083 18.6342 27.7331 19.2 27.7331H25.6C26.1658 27.7331 26.7084 27.5083 27.1085 27.1082C27.5086 26.7082 27.7333 26.1655 27.7333 25.5997V19.1997C27.7333 18.6339 27.5086 18.0913 27.1085 17.6912C26.7084 17.2912 26.1658 17.0664 25.6 17.0664ZM19.2 25.5997V19.1997H25.6V25.5997H19.2Z" fill="#5723FF"/>
<path d="M25.6 29.8662H19.2C18.6342 29.8662 18.0916 30.091 17.6915 30.4911C17.2914 30.8911 17.0667 31.4337 17.0667 31.9995V38.3995C17.0667 38.9653 17.2914 39.508 17.6915 39.908C18.0916 40.3081 18.6342 40.5329 19.2 40.5329H25.6C26.1658 40.5329 26.7084 40.3081 27.1085 39.908C27.5086 39.508 27.7333 38.9653 27.7333 38.3995V31.9995C27.7333 31.4337 27.5086 30.8911 27.1085 30.4911C26.7084 30.091 26.1658 29.8662 25.6 29.8662ZM19.2 38.3995V31.9995H25.6V38.3995H19.2Z" fill="#5723FF"/>
<path d="M25.6 42.667H19.2C18.6342 42.667 18.0916 42.8918 17.6915 43.2918C17.2914 43.6919 17.0667 44.2345 17.0667 44.8003V51.2003C17.0667 51.7661 17.2914 52.3087 17.6915 52.7088C18.0916 53.1089 18.6342 53.3337 19.2 53.3337H25.6C26.1658 53.3337 26.7084 53.1089 27.1085 52.7088C27.5086 52.3087 27.7333 51.7661 27.7333 51.2003V44.8003C27.7333 44.2345 27.5086 43.6919 27.1085 43.2918C26.7084 42.8918 26.1658 42.667 25.6 42.667ZM19.2 51.2003V44.8003H25.6V51.2003H19.2Z" fill="#5723FF"/>
<path d="M32 27.7331H38.4C38.9658 27.7331 39.5084 27.5083 39.9085 27.1082C40.3085 26.7082 40.5333 26.1655 40.5333 25.5997V19.1997C40.5333 18.6339 40.3085 18.0913 39.9085 17.6912C39.5084 17.2912 38.9658 17.0664 38.4 17.0664H32C31.4342 17.0664 30.8916 17.2912 30.4915 17.6912C30.0914 18.0913 29.8666 18.6339 29.8666 19.1997V25.5997C29.8666 26.1655 30.0914 26.7082 30.4915 27.1082C30.8916 27.5083 31.4342 27.7331 32 27.7331ZM32 19.1997H38.4V25.5997H32V19.1997Z" fill="#5723FF"/>
<path d="M44.8 27.7331H51.2C51.7658 27.7331 52.3084 27.5083 52.7085 27.1082C53.1086 26.7082 53.3334 26.1655 53.3334 25.5997V19.1997C53.3334 18.6339 53.1086 18.0913 52.7085 17.6912C52.3084 17.2912 51.7658 17.0664 51.2 17.0664H44.8C44.2342 17.0664 43.6916 17.2912 43.2915 17.6912C42.8914 18.0913 42.6667 18.6339 42.6667 19.1997V25.5997C42.6667 26.1655 42.8914 26.7082 43.2915 27.1082C43.6916 27.5083 44.2342 27.7331 44.8 27.7331ZM44.8 19.1997H51.2V25.5997H44.8V19.1997Z" fill="#5723FF"/>
<path d="M46.9333 40.5332C46.6504 40.5332 46.3791 40.6456 46.1791 40.8456C45.9791 41.0457 45.8667 41.317 45.8667 41.5999V43.9295C45.4314 44.0812 45.0342 44.3255 44.7024 44.6455C44.3706 44.9654 44.1121 45.3535 43.9446 45.783C43.7771 46.2124 43.7047 46.6731 43.7324 47.1332C43.76 47.5933 43.887 48.042 44.1046 48.4484C44.3223 48.8547 44.6254 49.2091 44.9931 49.487C45.3608 49.765 45.7844 49.96 46.2347 50.0586C46.685 50.1572 47.1513 50.157 47.6015 50.0581C48.0517 49.9592 48.4752 49.764 48.8427 49.4857L49.5403 49.9529C49.7754 50.1044 50.0606 50.1574 50.3345 50.1007C50.6083 50.0439 50.8489 49.8818 51.0044 49.6494C51.16 49.4169 51.218 49.1327 51.166 48.8579C51.114 48.5831 50.9561 48.3397 50.7264 48.1801L50.0267 47.7119C50.2331 46.9419 50.1384 46.1222 49.7619 45.4196C49.3854 44.7169 48.7554 44.1841 48 43.9295V41.5999C48 41.317 47.8876 41.0457 47.6876 40.8456C47.4875 40.6456 47.2162 40.5332 46.9333 40.5332ZM45.8667 46.9332C45.8667 46.7222 45.9292 46.516 46.0464 46.3406C46.1636 46.1652 46.3302 46.0285 46.5251 45.9477C46.7201 45.867 46.9345 45.8459 47.1414 45.887C47.3483 45.9282 47.5384 46.0298 47.6876 46.179C47.8368 46.3281 47.9384 46.5182 47.9795 46.7251C48.0207 46.932 47.9995 47.1465 47.9188 47.3414C47.8381 47.5363 47.7014 47.7029 47.5259 47.8201C47.3505 47.9373 47.1443 47.9999 46.9333 47.9999C46.6504 47.9999 46.3791 47.8875 46.1791 47.6875C45.9791 47.4874 45.8667 47.2161 45.8667 46.9332Z" fill="#5723FF"/>
</g>
</svg>
