<svg  viewBox="0 0 64 64" fill="none" xmlns="http://www.w3.org/2000/svg">
<g clip-path="url(#clip0_240_10542)">
<path d="M53.3355 22.4013C48.0709 22.4019 43.5944 26.244 42.7954 31.4477C41.9965 36.6513 45.1141 41.6595 50.136 43.2395V45.8641C50.1283 52.34 44.8805 57.5879 38.4047 57.5955H37.3382C31.9793 57.5637 27.3122 53.9308 25.9662 48.7436C32.0588 47.5696 37.0285 43.1702 38.9326 37.2649L40.2123 33.3189C40.5279 32.3383 40.4741 31.2763 40.0609 30.3327L44.2288 17.4847C45.4033 13.9163 44.7786 10.0003 42.5523 6.97444C40.8006 4.53179 38.1644 2.86952 35.2053 2.34162V2.13789C35.2053 0.959833 34.2504 0.00488281 33.0723 0.00488281H30.9393C28.5833 0.00488281 26.6733 1.91478 26.6733 4.27089V6.40389C26.6733 8.75989 28.5832 10.6699 30.9393 10.6699H33.0723C34.0813 10.6697 34.9521 9.96269 35.1594 8.97521C37.7046 10.0454 39.0006 12.8913 38.137 15.5138L33.9777 28.349C33.0852 28.8706 32.4147 29.7011 32.0931 30.6835L30.8134 34.6296C29.6793 38.1511 26.4002 40.5367 22.7006 40.5315H22.113C18.4126 40.5382 15.1318 38.1535 13.9959 34.6317L12.7162 30.6856C12.395 29.7036 11.7249 28.8734 10.8327 28.3522L6.67336 15.5149C5.80959 12.8906 7.10767 10.0431 9.65529 8.97405C9.86218 9.96185 10.7331 10.6695 11.7424 10.6698H13.8754C16.2314 10.6698 18.1414 8.75989 18.1414 6.40379V4.27089C18.1414 1.91489 16.2315 0.00488281 13.8754 0.00488281H11.7424C10.5643 0.00488281 9.60938 0.959833 9.60938 2.13789V2.33941C6.64809 2.85963 4.00982 4.52274 2.26342 6.97013C0.03082 9.99459 -0.594688 13.9146 0.585786 17.4836L4.75472 30.3231C4.33842 31.2679 4.2823 32.3324 4.59689 33.3157L5.87665 37.2617C7.85162 43.3903 13.117 47.8788 19.4809 48.8588C20.9334 57.5907 28.4862 63.9924 37.3382 63.9944H38.4047C48.4131 63.9832 56.5239 55.8725 56.535 45.864V43.2394C61.5569 41.6594 64.6745 36.6513 63.8756 31.4476C63.0767 26.2439 58.6001 22.4019 53.3355 22.4013ZM11.7424 2.13789H13.8754C15.0534 2.13789 16.0084 3.09284 16.0084 4.27089V6.40389C16.0084 7.58195 15.0534 8.5369 13.8754 8.5369H11.7424V2.13789ZM30.9392 8.53679C29.7612 8.53679 28.8062 7.58184 28.8062 6.40379V4.27089C28.8062 3.09284 29.7612 2.13789 30.9392 2.13789H33.0722V8.53679H30.9392ZM40.1654 16.1708C40.7883 14.2595 40.6127 12.1777 39.6788 10.3976C38.745 8.61755 37.1318 7.29009 35.2051 6.71638V4.51294C37.8293 5.11434 40.0805 6.78945 41.4105 9.13019C42.7405 11.4709 43.027 14.2624 42.2003 16.8244L38.4398 28.415C38.1384 28.2168 37.8131 28.0576 37.4714 27.9416C37.1286 27.836 36.7739 27.7736 36.4156 27.7559L40.1654 16.1708ZM3.98897 8.22325C5.3378 6.33198 7.34056 5.00863 9.60938 4.50979V6.71638C7.68285 7.28988 6.06964 8.61712 5.13575 10.3971C4.20186 12.1771 4.02635 14.2587 4.64912 16.1698L8.3989 27.7561C8.04061 27.7736 7.6859 27.836 7.34309 27.9418C7.0027 28.0577 6.6781 28.2156 6.37687 28.4121L2.61424 16.8245C1.64876 13.9043 2.1614 10.6971 3.98897 8.22325ZM7.90942 36.6058L6.62966 32.6598C6.35087 31.9242 6.49964 31.0949 7.01659 30.502C7.53355 29.9092 8.33489 29.6489 9.10159 29.8249C9.86828 30.001 10.4758 30.5847 10.6824 31.3437L11.9621 35.2897C13.3817 39.6941 17.4856 42.6756 22.113 42.6645H22.7006C27.3261 42.6733 31.4272 39.6922 32.8462 35.2897L34.1259 31.3437C34.4894 30.2231 35.6924 29.6093 36.8129 29.9727C37.9335 30.3362 38.5473 31.5392 38.1839 32.6598L36.9041 36.6058C34.9182 42.7696 29.1764 46.9434 22.7006 46.9305H22.113C15.6376 46.942 9.8965 42.7688 7.90942 36.6058ZM54.402 45.864C54.392 54.6949 47.2356 61.8513 38.4047 61.8614H37.3382C29.7323 61.8615 23.1799 56.5015 21.6725 49.0464C21.8197 49.0464 21.9647 49.0634 22.1129 49.0634H22.7005C23.0866 49.0634 23.4684 49.0432 23.848 49.0175C25.3444 55.2666 30.9125 59.6875 37.3381 59.7282H38.4046C46.058 59.7194 52.2601 53.5173 52.2689 45.8639V43.6765C52.978 43.7491 53.6927 43.7491 54.4019 43.6765L54.402 45.864ZM53.3355 41.5981C48.6235 41.5981 44.8036 37.7782 44.8036 33.0662C44.8036 28.3542 48.6235 24.5343 53.3355 24.5343C58.0475 24.5343 61.8674 28.3542 61.8674 33.0662C61.8621 37.776 58.0454 41.5928 53.3355 41.5981Z" fill="#5723FF"/>
<path d="M53.3354 27.7334C50.3904 27.7334 48.003 30.1208 48.003 33.0659C48.003 36.0109 50.3904 38.3983 53.3354 38.3983C56.2805 38.3983 58.6679 36.0109 58.6679 33.0659C58.6644 30.1222 56.2791 27.7369 53.3354 27.7334ZM53.3354 36.2653C51.5684 36.2653 50.136 34.8329 50.136 33.0659C50.136 31.2988 51.5684 29.8664 53.3354 29.8664C55.1025 29.8664 56.5349 31.2988 56.5349 33.0659C56.5349 34.8329 55.1025 36.2653 53.3354 36.2653Z" fill="#5723FF"/>
</g>
</svg>
