<svg  viewBox="0 0 64 64" fill="none" xmlns="http://www.w3.org/2000/svg">
<path d="M10.198 15.5124L7.54848 12.8628C6.74297 12.0308 5.51679 11.7637 4.43811 12.1849C3.31787 12.6174 2.56274 13.6758 2.51825 14.8758C2.34219 17.9247 3.45481 20.9074 5.58431 23.0964C8.50945 25.8102 12.5967 26.8837 16.478 25.9572L24.8725 34.3503L14.6819 44.541L11.4799 45.9174C10.4385 46.3604 9.57619 47.1407 9.03122 48.1328L5.80728 53.9341C5.23028 54.9752 5.41552 56.2729 6.26067 57.1109L8.37269 59.223C8.87317 59.7371 9.56165 60.0252 10.2794 60.0205C10.7362 60.0202 11.1862 59.9075 11.5894 59.6926L17.3655 56.4728C18.3556 55.9289 19.1355 55.0696 19.5809 54.0314L20.9603 50.8192L31.1509 40.6286L36.574 46.0516C35.6426 49.9443 36.726 54.0444 39.4584 56.9688C41.5608 58.9913 44.3844 60.0894 47.3008 60.0186H47.692C48.8711 59.9655 49.9082 59.2219 50.337 58.1223C50.7648 57.0419 50.5057 55.8103 49.6783 54.9941L47.0347 52.3624L47.6254 49.0792L50.9365 48.4146L53.6037 51.0524C54.4203 51.8818 55.6533 52.1432 56.7363 51.717C57.8479 51.2839 58.5959 50.2317 58.6399 49.0394C58.8015 45.9938 57.6936 43.0174 55.5797 40.8188C52.6765 38.0838 48.5823 37.0117 44.7111 37.9728L43.7467 37.0143C44.3351 36.2112 44.4589 35.1584 44.0732 34.2406C43.8869 33.6714 44.0361 33.0459 44.4592 32.622C44.8823 32.1982 45.5078 32.0481 46.0772 32.2335C47.2028 32.7057 48.5036 32.4305 49.3411 31.5422L60.2303 20.6544C61.3588 19.556 61.8283 17.9457 61.4663 16.4128C60.6212 13.4746 58.9956 10.8208 56.7624 8.73298C54.6745 6.49979 52.0206 4.87423 49.0826 4.02908C47.5507 3.67471 45.9446 4.14247 44.8425 5.26374L33.9445 16.1545C33.0576 16.9923 32.7834 18.2923 33.2562 19.4168C33.4413 19.9864 33.2908 20.6115 32.8674 21.0348C32.4439 21.458 31.8185 21.6078 31.2491 21.4224C30.3299 21.0356 29.2751 21.1599 28.4711 21.7503L24.5474 17.823C25.5051 13.9561 24.4401 9.86724 21.7177 6.95889C19.5271 4.81693 16.5304 3.70362 13.4722 3.89647C12.2855 3.94996 11.2424 4.69973 10.8138 5.8075C10.3923 6.88133 10.6552 8.10353 11.4813 8.90904L14.1397 11.5231L13.4471 14.8255L10.198 15.5124ZM18.8672 48.7188C18.6021 48.9844 18.3899 49.2975 18.241 49.6418L16.8571 52.8644C16.6703 53.2963 16.3443 53.6536 15.9311 53.879L10.3367 56.9969L8.49958 55.1597L11.6158 49.5475C11.8423 49.1332 12.2018 48.8074 12.6365 48.6229L15.8444 47.2419C16.1913 47.0953 16.5064 46.8826 16.7719 46.6158L30.7729 32.6164L32.87 34.7122L18.8672 48.7188ZM44.7042 41.039C47.755 40.0576 51.0974 40.7688 53.4845 42.9073C55.0165 44.5351 55.8127 46.7205 55.6865 48.9523L53.0621 46.3589C52.3843 45.6323 51.3766 45.3115 50.4037 45.5125L47.057 46.1756C45.9221 46.4094 45.0343 47.2949 44.7973 48.4293L44.1298 51.7951C43.9316 52.7405 44.2333 53.7212 44.9289 54.3915L47.5828 57.0645C45.3496 57.2023 43.1593 56.4069 41.5348 54.8684C39.3655 52.4796 38.6379 49.1138 39.6267 46.0424C39.7872 45.5203 39.6463 44.9523 39.2606 44.5656L33.2347 38.5398L34.9583 36.8162L36.574 38.4319C37.3355 39.1865 38.3669 39.6055 39.4392 39.5956C40.1859 39.5861 40.9183 39.3906 41.5704 39.0271L43.2305 40.671C43.617 41.0546 44.1838 41.1943 44.7044 41.0342V41.0387L44.7042 41.039ZM46.9241 7.35256C47.2885 6.96253 47.8284 6.78785 48.3523 6.89034C50.7749 7.60738 52.9587 8.96513 54.6734 10.8204C56.5303 12.5348 57.8889 14.7195 58.6051 17.143C58.7101 17.6658 58.5355 18.2059 58.1444 18.5682L47.1799 29.4974C45.505 28.869 43.6174 29.2824 42.3585 30.5532C41.0996 31.8239 40.7037 33.7155 41.3476 35.3844L40.5664 36.1494C40.0881 36.7181 39.2436 36.802 38.6628 36.3384L29.1558 26.8314C28.9444 26.6041 28.8374 26.2991 28.8603 25.9895C28.8869 25.5867 29.063 25.2079 29.3535 24.9276L30.1526 24.164C31.8183 24.8144 33.7113 24.4043 34.9583 23.1227L34.9566 23.1272C36.2535 21.8711 36.6585 19.9533 35.9802 18.2802L46.9241 7.35256ZM16.3315 15.4843L17.0287 12.1112C17.2039 11.1576 16.9028 10.1787 16.2223 9.48829L13.5816 6.85052C15.8198 6.67948 18.0232 7.48153 19.628 9.05117C21.7603 11.4461 22.4685 14.7894 21.4904 17.8432C21.3306 18.3658 21.4727 18.934 21.8595 19.3201L26.469 23.931C26.1391 24.5203 25.9467 25.1768 25.9064 25.8509C25.838 26.9933 26.2609 28.1105 27.0687 28.9214L28.6844 30.5371L26.9608 32.2534L17.9666 23.2591C17.5804 22.8729 17.012 22.7313 16.4897 22.8914C13.4244 23.8751 10.0673 23.1558 7.67416 21.0026C6.11612 19.3813 5.30923 17.181 5.44997 14.9369L8.1305 17.6322C8.82521 18.3013 9.80193 18.5912 10.7491 18.4091L14.0218 17.7269C15.1786 17.5233 16.094 16.6345 16.3315 15.4843Z" fill="#5723FF"/>
<path fill-rule="evenodd" clip-rule="evenodd" d="M40.7547 22.034C41.1463 22.034 41.522 21.8782 41.799 21.6014L48.3992 15.0025C48.7724 14.6296 48.9184 14.0855 48.782 13.5759C48.6455 13.0661 48.2475 12.6677 47.7377 12.531C47.2279 12.3942 46.684 12.5398 46.3107 12.9127L39.7105 19.5129C39.2883 19.9351 39.1621 20.5705 39.3904 21.1222C39.6191 21.6739 40.1577 22.0338 40.7547 22.034Z" fill="#5723FF"/>
<path fill-rule="evenodd" clip-rule="evenodd" d="M43.8914 25.7824C44.468 26.3589 45.403 26.3589 45.9797 25.7824L52.5844 19.1835C53.1441 18.6041 53.1361 17.6828 52.5664 17.1133C51.9967 16.5435 51.0755 16.5356 50.4961 17.0952L43.8959 23.6941C43.318 24.2695 43.3161 25.2043 43.8914 25.7824Z" fill="#5723FF"/>
</svg>
