<svg viewBox="0 0 64 64" fill="none" xmlns="http://www.w3.org/2000/svg">
<path d="M48.7483 41.3964L48.7709 41.3315C48.9346 40.7172 49.1901 40.1312 49.5288 39.5932C49.9589 39.1444 50.4556 38.7645 51.0015 38.467C52.1024 37.9054 53.0162 37.0359 53.6317 35.9643C54.061 34.8127 54.1558 33.5633 53.9052 32.3602C53.7903 31.7202 53.7732 31.0665 53.8544 30.4214C54.0481 29.8342 54.3295 29.2798 54.6891 28.7768C55.446 27.7776 55.901 26.5825 56 25.3328C55.9005 24.0839 55.446 22.8894 54.6901 21.8902C54.3299 21.3869 54.048 20.832 53.8541 20.2443C53.7729 19.5996 53.79 18.9463 53.9049 18.3068C54.1553 17.1038 54.061 15.8545 53.6328 14.7027C53.017 13.6321 52.1038 12.7632 51.0039 12.2014C50.4574 11.903 49.9603 11.5223 49.5299 11.0724C49.1909 10.5344 48.935 9.94843 48.7708 9.33415C48.487 8.13162 47.8649 7.03549 46.9779 6.17535C45.9692 5.48209 44.7784 5.10177 43.5547 5.08202C42.9332 5.05453 42.3198 4.92977 41.7369 4.71229C41.2169 4.38314 40.7498 3.97706 40.3515 3.50789C39.5759 2.53406 38.5309 1.81006 37.3467 1.42615C36.1485 1.25664 34.9269 1.44274 33.8336 1.96135C33.2514 2.21693 32.6326 2.37962 32 2.44349C31.3679 2.37985 30.7497 2.21729 30.168 1.96175C29.0745 1.44229 27.8521 1.25678 26.6537 1.42842C25.4701 1.81092 24.4253 2.53356 23.6497 3.50615C23.2521 3.97603 22.7849 4.38221 22.2643 4.71055C21.6814 4.92804 21.068 5.0528 20.4465 5.08029C19.2228 5.10004 18.032 5.48036 17.0233 6.17362C16.1362 7.03434 15.5136 8.13076 15.2291 9.33362C15.0654 9.94791 14.8099 10.5339 14.4712 11.0719C14.0411 11.5207 13.5444 11.9006 12.9985 12.1982C11.8976 12.7597 10.9838 13.6292 10.3683 14.7008C9.93902 15.8524 9.84422 17.1018 10.0948 18.305C10.2097 18.9449 10.2268 19.5986 10.1456 20.2438C9.95191 20.8309 9.6705 21.3853 9.31093 21.8883C8.55386 22.8876 8.09893 24.083 8 25.3328C8.09949 26.5818 8.55397 27.7763 9.30987 28.7755C9.6701 29.2787 9.95197 29.8336 10.1459 30.4214C10.2272 31.0662 10.21 31.7197 10.0951 32.3595C9.84468 33.5625 9.93901 34.8118 10.3672 35.9636C10.983 37.0342 11.8962 37.9032 12.9961 38.465C13.5426 38.7633 14.0397 39.1441 14.4701 39.5939C14.8091 40.1319 15.065 40.7179 15.2292 41.3322L15.2539 41.4031C15.2496 41.41 15.2424 41.4136 15.2383 41.4207L8.36067 53.3328C8.10929 53.7678 7.98593 54.2649 8.00482 54.7669C8.02371 55.2689 8.18407 55.7553 8.46742 56.1702C8.75077 56.585 9.14557 56.9113 9.60632 57.1115C10.0671 57.3117 10.575 57.3776 11.0716 57.3016L15.7135 56.5959L17.4244 60.9722C17.6055 61.4409 17.9162 61.8484 18.3204 62.147C18.7246 62.4456 19.2054 62.6229 19.7067 62.6583C19.7756 62.6635 19.8447 62.6662 19.9137 62.6662C20.3812 62.6673 20.8407 62.5445 21.2453 62.3103C21.6499 62.0761 21.9852 61.7388 22.2171 61.3328L29.3408 48.9926C29.624 48.9014 29.8997 48.8012 30.1663 48.7039C30.7486 48.4484 31.3673 48.2859 32 48.2222C32.6321 48.2858 33.2503 48.4484 33.832 48.7039C34.0987 48.8015 34.3775 48.8983 34.6608 48.9898L34.6667 49.0074L41.7825 61.3328C42.0144 61.7388 42.3497 62.0761 42.7543 62.3103C43.1589 62.5445 43.6184 62.6673 44.0859 62.6662C44.1548 62.6662 44.2239 62.6635 44.2929 62.6583C44.7945 62.6228 45.2757 62.4453 45.6801 62.1465C46.0846 61.8477 46.3956 61.4399 46.5768 60.9708L48.2864 56.5959L52.9264 57.3016C53.4231 57.378 53.9313 57.3124 54.3924 57.1123C54.8534 56.9123 55.2485 56.5861 55.5321 56.1712C55.8157 55.7563 55.9763 55.2697 55.9952 54.7675C56.0142 54.2653 55.8908 53.7679 55.6393 53.3328L48.7483 41.3964ZM19.9076 59.9995L17.81 54.631C17.6989 54.3497 17.4958 54.1143 17.2338 53.9632C16.9719 53.8122 16.6664 53.7542 16.3673 53.799L10.6705 54.6662L16.7253 44.1786C16.8179 44.2883 16.9171 44.3924 17.0221 44.4903C18.0308 45.1836 19.2216 45.5639 20.4453 45.5836C21.0668 45.6111 21.6802 45.7359 22.2631 45.9534C22.7831 46.2825 23.2502 46.6886 23.6485 47.1578C24.3479 47.9824 25.2249 48.6378 26.2139 49.075L19.9076 59.9995ZM34.7467 46.1987C33.8756 45.8257 32.9461 45.608 32 45.5555C31.0538 45.6074 30.1242 45.8251 29.2533 46.1987C28.6319 46.502 27.9474 46.6537 27.256 46.6414C26.595 46.3388 26.0163 45.882 25.5685 45.3094C24.967 44.6077 24.2474 44.0166 23.4423 43.5627C22.584 43.1968 21.6685 42.9836 20.7369 42.9328C20.0298 42.9319 19.3337 42.7575 18.7096 42.425C18.2447 41.8617 17.9187 41.1972 17.7577 40.4848C17.5102 39.5789 17.1088 38.7222 16.5711 37.9523C15.9613 37.2501 15.2333 36.66 14.42 36.2088C13.7685 35.8883 13.2051 35.4137 12.7787 34.8262C12.5978 34.1188 12.5862 33.3788 12.7448 32.6662C12.9029 31.732 12.9047 30.778 12.75 29.8432C12.5016 28.9554 12.103 28.1166 11.5716 27.3632C11.1089 26.7704 10.7982 26.0733 10.6667 25.3328C10.798 24.5924 11.1087 23.8954 11.5716 23.3028C12.1035 22.5497 12.5021 21.7109 12.75 20.8228C12.9047 19.8879 12.903 18.9338 12.7448 17.9995C12.5859 17.2868 12.598 16.5466 12.78 15.8395C13.206 15.2506 13.7697 14.7749 14.4219 14.454C15.2355 14.0034 15.964 13.4138 16.5743 12.7119C17.1108 11.9421 17.5111 11.0859 17.7579 10.1807C17.9195 9.46804 18.2459 8.80319 18.7109 8.23949C19.335 7.90695 20.0311 7.73256 20.7383 7.73162C21.67 7.68072 22.5857 7.46743 23.444 7.10135C24.2497 6.64831 24.9694 6.05708 25.5703 5.35469C26.0182 4.78247 26.5969 4.32613 27.2577 4.02402C27.9486 4.01298 28.6324 4.16462 29.2539 4.46669C30.1247 4.83968 31.0541 5.05746 32 5.11015C32.9462 5.05823 33.8758 4.84052 34.7467 4.46695C35.3686 4.16499 36.0527 4.01337 36.744 4.02429C37.405 4.32684 37.9837 4.78364 38.4315 5.35629C39.033 6.05796 39.7526 6.64908 40.5577 7.10295C41.416 7.46885 42.3315 7.682 43.2631 7.73282C43.9702 7.73376 44.6663 7.90815 45.2904 8.24069C45.7553 8.8039 46.0813 9.46847 46.2423 10.1808C46.4898 11.0868 46.8912 11.9434 47.4289 12.7134C48.0387 13.4156 48.7667 14.0056 49.58 14.4568C50.2315 14.7773 50.7949 15.2519 51.2213 15.8395C51.4022 16.5468 51.4138 17.2868 51.2552 17.9995C51.0971 18.9337 51.0953 19.8877 51.25 20.8224C51.4984 21.7103 51.897 22.549 52.4284 23.3024C52.8911 23.8953 53.2018 24.5923 53.3333 25.3328C53.202 26.0732 52.8913 26.7702 52.4284 27.3628C51.8965 28.1159 51.4979 28.9548 51.25 29.8428C51.0953 30.7777 51.097 31.7318 51.2552 32.6662C51.4141 33.3788 51.402 34.119 51.22 34.8262C50.794 35.4151 50.2303 35.8907 49.5781 36.2116C48.7645 36.6622 48.036 37.2518 47.4257 37.9538C46.8893 38.7235 46.4889 39.5797 46.2421 40.485C46.0805 41.1977 45.7541 41.8626 45.2891 42.4264C44.665 42.759 43.9689 42.9333 43.2617 42.9343C42.33 42.9852 41.4143 43.1985 40.556 43.5646C39.7503 44.0176 39.0306 44.6088 38.4297 45.3112C37.9818 45.8834 37.4031 46.3398 36.7423 46.6419C36.0516 46.652 35.3681 46.5002 34.7467 46.1987ZM47.6333 53.7987C47.3343 53.7544 47.029 53.8125 46.7671 53.9635C46.5053 54.1146 46.3021 54.3497 46.1907 54.6307L44.0924 59.9995L37.7857 49.075C38.7743 48.6384 39.6511 47.9835 40.3503 47.1595C40.7479 46.6896 41.2151 46.2834 41.7357 45.9551C42.3186 45.7376 42.932 45.6128 43.5535 45.5854C44.7772 45.5656 45.968 45.1853 46.9767 44.492C47.0822 44.3937 47.1818 44.2891 47.2748 44.1788L53.3295 54.6662L47.6333 53.7987ZM48 25.3328C48 22.1683 47.0616 19.0749 45.3035 16.4437C43.5454 13.8125 41.0466 11.7618 38.1229 10.5507C35.1993 9.33975 31.9823 9.02289 28.8786 9.64026C25.7749 10.2576 22.9239 11.7815 20.6863 14.0191C18.4487 16.2568 16.9248 19.1077 16.3074 22.2114C15.6901 25.3151 16.0069 28.5321 17.2179 31.4558C18.4289 34.3794 20.4797 36.8782 23.1109 38.6363C25.7421 40.3944 28.8355 41.3328 32 41.3328C36.242 41.3282 40.309 39.641 43.3086 36.6414C46.3082 33.6418 47.9954 29.5749 48 25.3328ZM32 38.6662C29.3629 38.6662 26.7851 37.8842 24.5924 36.4191C22.3997 34.954 20.6908 32.8716 19.6816 30.4353C18.6724 27.9989 18.4084 25.318 18.9229 22.7316C19.4373 20.1452 20.7072 17.7694 22.5719 15.9047C24.4366 14.04 26.8124 12.7702 29.3988 12.2557C31.9852 11.7412 34.6661 12.0053 37.1024 13.0144C39.5388 14.0236 41.6212 15.7326 43.0863 17.9252C44.5513 20.1179 45.3333 22.6957 45.3333 25.3328C45.3292 28.8678 43.9231 32.2567 41.4235 34.7563C38.9239 37.2559 35.5349 38.662 32 38.6662ZM38.0729 20.2235C38.2187 20.3205 38.3439 20.4454 38.4414 20.5908C38.5389 20.7363 38.6067 20.8996 38.6411 21.0713C38.6754 21.243 38.6756 21.4198 38.6415 21.5916C38.6075 21.7634 38.5399 21.9268 38.4427 22.0724L33.1093 30.0724C32.9999 30.2364 32.8554 30.3741 32.6863 30.4756C32.5172 30.577 32.3277 30.6397 32.1315 30.6591C32.0872 30.6635 32.0429 30.6662 32 30.6662C31.6464 30.6661 31.3073 30.5256 31.0573 30.2755L27.0573 26.2755C26.8145 26.024 26.6801 25.6872 26.6831 25.3376C26.6861 24.988 26.8264 24.6536 27.0736 24.4064C27.3208 24.1592 27.6552 24.019 28.0048 24.0159C28.3544 24.0129 28.6912 24.1473 28.9427 24.3902L31.7929 27.2404L36.2239 20.5932C36.4202 20.2991 36.7252 20.095 37.0719 20.0257C37.4186 19.9563 37.7787 20.0275 38.0729 20.2235Z" fill="#5723FF"/>
</svg>
