<svg viewBox="0 0 24 24" fill="none" xmlns="http://www.w3.org/2000/svg">
<path d="M10.49 2.22994L5.50003 4.09994C4.35003 4.52994 3.41003 5.88994 3.41003 7.11994V14.5499C3.41003 15.7299 4.19005 17.2799 5.14005 17.9899L9.44003 21.1999C10.85 22.2599 13.17 22.2599 14.58 21.1999L18.88 17.9899C19.83 17.2799 20.61 15.7299 20.61 14.5499V7.11994C20.61 5.88994 19.67 4.52994 18.52 4.09994L13.53 2.22994C12.68 1.91994 11.32 1.91994 10.49 2.22994Z" stroke="white" stroke-width="1.5" stroke-linecap="round" stroke-linejoin="round"/>
<path d="M12 15.5C14.2091 15.5 16 13.7091 16 11.5C16 9.29086 14.2091 7.5 12 7.5C9.79086 7.5 8 9.29086 8 11.5C8 13.7091 9.79086 15.5 12 15.5Z" stroke="white" stroke-width="1.5" stroke-miterlimit="10" stroke-linecap="round" stroke-linejoin="round"/>
<path d="M12.25 10.25V11.18C12.25 11.53 12.07 11.86 11.76 12.04L11 12.5" stroke="white" stroke-width="1.5" stroke-miterlimit="10" stroke-linecap="round" stroke-linejoin="round"/>
</svg>
